# xmcd
#
# Track frame offsets:
# 150
# 731
# 34667
# 63711
# 97239
# 123609
# 153865
# 189722
# 219018
# 237757
# 265699
# 300748
# 328274
#
# Disc length: 4382 seconds
#
#
# Revision: 0
# Processed by: cddbd v1.5.2PL0 Copyright (c) Steve Scherf et al.
# Submitted via: FreeRIP 2.96 
#
DISCID=b2111c0d
DTITLE=Ingrid Noll - Die Apothekerin CD4v6
DYEAR=1997
DGENRE=Speech
TTITLE0=CD4 Fortsetzung
TTITLE1=35 Die Apothekerin
TTITLE2=36 Die Apothekerin
TTITLE3=37 Die Apothekerin
TTITLE4=38 Die Apothekerin
TTITLE5=39 Die Apothekerin
TTITLE6=40 Die Apothekerin
TTITLE7=41 Die Apothekerin
TTITLE8=42 Die Apothekerin
TTITLE9=43 Die Apothekerin
TTITLE10=44 Die Apothekerin
TTITLE11=45 Die Apothekerin
TTITLE12=zur Fortsetzung CD5 einlegen
EXTD=gelesen von Silvia Jost
EXTT0=
EXTT1=
EXTT2=
EXTT3=
EXTT4=
EXTT5=
EXTT6=
EXTT7=
EXTT8=
EXTT9=
EXTT10=
EXTT11=
EXTT12=
PLAYORDER=
